<svg width="35" height="44" viewBox="0 0 35 44" fill="none" xmlns="http://www.w3.org/2000/svg">
<mask id="path-1-outside-1_268_1340" maskUnits="userSpaceOnUse" x="1" y="28" width="32" height="17" fill="black">
<rect fill="white" x="1" y="28" width="32" height="17"/>
<path d="M2.90961 44L9.12961 29.9H10.5696L16.8896 44H15.1696L13.4096 39.98L14.1496 40.4H5.52961L6.32961 39.98L4.60961 44H2.90961ZM9.82961 31.8L6.58961 39.4L6.10961 39.04H13.5496L13.1896 39.4L9.86961 31.8H9.82961ZM20.6166 44V29.9H26.2566C27.75 29.9 28.9033 30.22 29.7166 30.86C30.53 31.5 30.9366 32.4067 30.9366 33.58C30.9366 34.46 30.67 35.1933 30.1366 35.78C29.6166 36.3667 28.89 36.7533 27.9566 36.94V36.66C28.9966 36.78 29.81 37.14 30.3966 37.74C30.9966 38.3267 31.2966 39.12 31.2966 40.12C31.2966 41.3733 30.8766 42.3333 30.0366 43C29.21 43.6667 28.0366 44 26.5166 44H20.6166ZM22.2366 42.66H26.3566C27.37 42.66 28.17 42.4667 28.7566 42.08C29.3566 41.68 29.6566 41.02 29.6566 40.1C29.6566 39.1667 29.3566 38.5067 28.7566 38.12C28.17 37.72 27.37 37.52 26.3566 37.52H22.2366V42.66ZM22.2366 36.2H26.0166C27.11 36.2 27.93 35.9867 28.4766 35.56C29.0233 35.1333 29.2966 34.52 29.2966 33.72C29.2966 32.8933 29.0233 32.2733 28.4766 31.86C27.93 31.4333 27.11 31.22 26.0166 31.22H22.2366V36.2Z"/>
</mask>
<path d="M2.90961 44L9.12961 29.9H10.5696L16.8896 44H15.1696L13.4096 39.98L14.1496 40.4H5.52961L6.32961 39.98L4.60961 44H2.90961ZM9.82961 31.8L6.58961 39.4L6.10961 39.04H13.5496L13.1896 39.4L9.86961 31.8H9.82961ZM20.6166 44V29.9H26.2566C27.75 29.9 28.9033 30.22 29.7166 30.86C30.53 31.5 30.9366 32.4067 30.9366 33.58C30.9366 34.46 30.67 35.1933 30.1366 35.78C29.6166 36.3667 28.89 36.7533 27.9566 36.94V36.66C28.9966 36.78 29.81 37.14 30.3966 37.74C30.9966 38.3267 31.2966 39.12 31.2966 40.12C31.2966 41.3733 30.8766 42.3333 30.0366 43C29.21 43.6667 28.0366 44 26.5166 44H20.6166ZM22.2366 42.66H26.3566C27.37 42.66 28.17 42.4667 28.7566 42.08C29.3566 41.68 29.6566 41.02 29.6566 40.1C29.6566 39.1667 29.3566 38.5067 28.7566 38.12C28.17 37.72 27.37 37.52 26.3566 37.52H22.2366V42.66ZM22.2366 36.2H26.0166C27.11 36.2 27.93 35.9867 28.4766 35.56C29.0233 35.1333 29.2966 34.52 29.2966 33.72C29.2966 32.8933 29.0233 32.2733 28.4766 31.86C27.93 31.4333 27.11 31.22 26.0166 31.22H22.2366V36.2Z" fill="#E27258"/>
<path d="M2.90961 44L1.99468 43.5964L1.3755 45H2.90961V44ZM9.12961 29.9V28.9H8.47777L8.21468 29.4964L9.12961 29.9ZM10.5696 29.9L11.4821 29.491L11.2172 28.9H10.5696V29.9ZM16.8896 44V45H18.4337L17.8021 43.591L16.8896 44ZM15.1696 44L14.2536 44.4011L14.5158 45H15.1696V44ZM13.4096 39.98L13.9032 39.1103L11.2872 37.6255L12.4936 40.3811L13.4096 39.98ZM14.1496 40.4V41.4H17.9374L14.6432 39.5303L14.1496 40.4ZM5.52961 40.4L5.06478 39.5146L5.52961 41.4V40.4ZM6.32961 39.98L7.24899 40.3734L8.35564 37.7869L5.86478 39.0946L6.32961 39.98ZM4.60961 44V45H5.26944L5.52899 44.3934L4.60961 44ZM9.82961 31.8V30.8H9.16884L8.90972 31.4078L9.82961 31.8ZM6.58961 39.4L5.98961 40.2L7.00953 40.9649L7.5095 39.7922L6.58961 39.4ZM6.10961 39.04V38.04H3.10961L5.50961 39.84L6.10961 39.04ZM13.5496 39.04L14.2567 39.7471L15.9638 38.04H13.5496V39.04ZM13.1896 39.4L12.2732 39.8003L12.8601 41.1437L13.8967 40.1071L13.1896 39.4ZM9.86961 31.8L10.786 31.3997L10.524 30.8H9.86961V31.8ZM3.82454 44.4036L10.0445 30.3036L8.21468 29.4964L1.99468 43.5964L3.82454 44.4036ZM9.12961 30.9H10.5696V28.9H9.12961V30.9ZM9.65708 30.309L15.9771 44.409L17.8021 43.591L11.4821 29.491L9.65708 30.309ZM16.8896 43H15.1696V45H16.8896V43ZM16.0857 43.5989L14.3257 39.5789L12.4936 40.3811L14.2536 44.4011L16.0857 43.5989ZM12.916 40.8497L13.656 41.2697L14.6432 39.5303L13.9032 39.1103L12.916 40.8497ZM14.1496 39.4H5.52961V41.4H14.1496V39.4ZM5.99444 41.2854L6.79444 40.8654L5.86478 39.0946L5.06478 39.5146L5.99444 41.2854ZM5.41023 39.5866L3.69023 43.6066L5.52899 44.3934L7.24899 40.3734L5.41023 39.5866ZM4.60961 43H2.90961V45H4.60961V43ZM8.90972 31.4078L5.66971 39.0078L7.5095 39.7922L10.7495 32.1922L8.90972 31.4078ZM7.18961 38.6L6.70961 38.24L5.50961 39.84L5.98961 40.2L7.18961 38.6ZM6.10961 40.04H13.5496V38.04H6.10961V40.04ZM12.8425 38.3329L12.4825 38.6929L13.8967 40.1071L14.2567 39.7471L12.8425 38.3329ZM14.106 38.9997L10.786 31.3997L8.95323 32.2003L12.2732 39.8003L14.106 38.9997ZM9.86961 30.8H9.82961V32.8H9.86961V30.8ZM20.6166 44H19.6166V45H20.6166V44ZM20.6166 29.9V28.9H19.6166V29.9H20.6166ZM29.7166 30.86L29.0983 31.6459L29.0983 31.6459L29.7166 30.86ZM30.1366 35.78L29.3966 35.1073L29.3883 35.1167L30.1366 35.78ZM27.9566 36.94H26.9566V38.1598L28.1528 37.9206L27.9566 36.94ZM27.9566 36.66L28.0713 35.6666L26.9566 35.538V36.66H27.9566ZM30.3966 37.74L29.6816 38.4391L29.6895 38.4472L29.6975 38.455L30.3966 37.74ZM30.0366 43L29.415 42.2167L29.4089 42.2216L30.0366 43ZM22.2366 42.66H21.2366V43.66H22.2366V42.66ZM28.7566 42.08L29.307 42.915L29.3113 42.9121L28.7566 42.08ZM28.7566 38.12L28.1933 38.9462L28.204 38.9535L28.2149 38.9606L28.7566 38.12ZM22.2366 37.52V36.52H21.2366V37.52H22.2366ZM22.2366 36.2H21.2366V37.2H22.2366V36.2ZM28.4766 35.56L29.0919 36.3483L29.0919 36.3483L28.4766 35.56ZM28.4766 31.86L27.8614 32.6483L27.8674 32.653L27.8735 32.6577L28.4766 31.86ZM22.2366 31.22V30.22H21.2366V31.22H22.2366ZM21.6166 44V29.9H19.6166V44H21.6166ZM20.6166 30.9H26.2566V28.9H20.6166V30.9ZM26.2566 30.9C27.6221 30.9 28.5244 31.1943 29.0983 31.6459L30.335 30.0741C29.2822 29.2457 27.8779 28.9 26.2566 28.9V30.9ZM29.0983 31.6459C29.6363 32.0693 29.9366 32.6668 29.9366 33.58H31.9366C31.9366 32.1466 31.4236 30.9307 30.335 30.0741L29.0983 31.6459ZM29.9366 33.58C29.9366 34.2408 29.7438 34.7255 29.3967 35.1073L30.8766 36.4527C31.5961 35.6612 31.9366 34.6792 31.9366 33.58H29.9366ZM29.3883 35.1167C29.0417 35.5077 28.5271 35.8061 27.7605 35.9594L28.1528 37.9206C29.2529 37.7006 30.1916 37.2256 30.885 36.4433L29.3883 35.1167ZM28.9566 36.94V36.66H26.9566V36.94H28.9566ZM27.842 37.6534C28.7119 37.7538 29.2919 38.0405 29.6816 38.4391L31.1116 37.0409C30.3281 36.2395 29.2813 35.8062 28.0713 35.6666L27.842 37.6534ZM29.6975 38.455C30.0687 38.818 30.2966 39.3336 30.2966 40.12H32.2966C32.2966 38.9064 31.9246 37.8354 31.0958 37.025L29.6975 38.455ZM30.2966 40.12C30.2966 41.126 29.9741 41.773 29.415 42.2167L30.6583 43.7833C31.7792 42.8937 32.2966 41.6207 32.2966 40.12H30.2966ZM29.4089 42.2216C28.8227 42.6943 27.9044 43 26.5166 43V45C28.1689 45 29.5972 44.639 30.6644 43.7784L29.4089 42.2216ZM26.5166 43H20.6166V45H26.5166V43ZM22.2366 43.66H26.3566V41.66H22.2366V43.66ZM26.3566 43.66C27.4833 43.66 28.4996 43.4471 29.307 42.915L28.2063 41.245C27.8403 41.4863 27.2566 41.66 26.3566 41.66V43.66ZM29.3113 42.9121C30.2661 42.2756 30.6566 41.2505 30.6566 40.1H28.6566C28.6566 40.7895 28.4472 41.0844 28.2019 41.2479L29.3113 42.9121ZM30.6566 40.1C30.6566 38.9442 30.2704 37.9059 29.2983 37.2794L28.2149 38.9606C28.4429 39.1075 28.6566 39.3891 28.6566 40.1H30.6566ZM29.32 37.2938C28.5103 36.7417 27.4887 36.52 26.3566 36.52V38.52C27.2513 38.52 27.8297 38.6983 28.1933 38.9462L29.32 37.2938ZM26.3566 36.52H22.2366V38.52H26.3566V36.52ZM21.2366 37.52V42.66H23.2366V37.52H21.2366ZM22.2366 37.2H26.0166V35.2H22.2366V37.2ZM26.0166 37.2C27.2126 37.2 28.2937 36.9713 29.0919 36.3483L27.8614 34.7717C27.5663 35.002 27.0074 35.2 26.0166 35.2V37.2ZM29.0919 36.3483C29.9206 35.7015 30.2966 34.7745 30.2966 33.72H28.2966C28.2966 34.2655 28.126 34.5651 27.8614 34.7717L29.0919 36.3483ZM30.2966 33.72C30.2966 32.6524 29.929 31.7045 29.0797 31.0623L27.8735 32.6577C28.1176 32.8422 28.2966 33.1343 28.2966 33.72H30.2966ZM29.0919 31.0717C28.2937 30.4487 27.2126 30.22 26.0166 30.22V32.22C27.0074 32.22 27.5663 32.418 27.8614 32.6483L29.0919 31.0717ZM26.0166 30.22H22.2366V32.22H26.0166V30.22ZM21.2366 31.22V36.2H23.2366V31.22H21.2366Z" fill="#E27258" mask="url(#path-1-outside-1_268_1340)"/>
<g clip-path="url(#clip0_268_1340)">
<path d="M33.5833 21.6667H1.08333C0.78993 21.6667 0.536024 21.5595 0.321615 21.3451C0.107205 21.1306 0 20.8767 0 20.5833C0 16.3403 1.31467 12.7235 3.94401 9.73307C6.57335 6.74262 9.95312 4.94271 14.0833 4.33333C14.3767 4.33333 14.6306 4.22613 14.8451 4.01172C15.0595 3.79731 15.1667 3.5434 15.1667 3.25C15.1667 2.9566 15.0595 2.70269 14.8451 2.48828C14.6306 2.27387 14.3767 2.16667 14.0833 2.16667C13.7899 2.16667 13.536 2.05946 13.3216 1.84505C13.1072 1.63064 13 1.37674 13 1.08333C13 0.789931 13.1072 0.536024 13.3216 0.321615C13.536 0.107205 13.7899 0 14.0833 0H20.5833C20.8767 0 21.1306 0.107205 21.3451 0.321615C21.5595 0.536024 21.6667 0.789931 21.6667 1.08333C21.6667 1.37674 21.5595 1.63064 21.3451 1.84505C21.1306 2.05946 20.8767 2.16667 20.5833 2.16667C20.2899 2.16667 20.036 2.27387 19.8216 2.48828C19.6072 2.70269 19.5 2.9566 19.5 3.25C19.5 3.5434 19.6072 3.79731 19.8216 4.01172C20.036 4.22613 20.2899 4.33333 20.5833 4.33333C24.7135 4.94271 28.0933 6.74262 30.7227 9.73307C33.352 12.7235 34.6667 16.3403 34.6667 20.5833C34.6667 20.8767 34.5595 21.1306 34.3451 21.3451C34.1306 21.5595 33.8767 21.6667 33.5833 21.6667ZM1.08333 23.8333H33.5833C33.8767 23.8333 34.1306 23.9405 34.3451 24.1549C34.5595 24.3694 34.6667 24.6233 34.6667 24.9167C34.6667 25.2101 34.5595 25.464 34.3451 25.6784C34.1306 25.8928 33.8767 26 33.5833 26H1.08333C0.78993 26 0.536024 25.8928 0.321615 25.6784C0.107205 25.464 0 25.2101 0 24.9167C0 24.6233 0.107205 24.3694 0.321615 24.1549C0.536024 23.9405 0.78993 23.8333 1.08333 23.8333Z" fill="#E27258"/>
</g>
<defs>
<clipPath id="clip0_268_1340">
<rect width="34.6667" height="26" fill="white"/>
</clipPath>
</defs>
</svg>
