<svg width="181" height="181" viewBox="0 0 181 181" fill="none" xmlns="http://www.w3.org/2000/svg">
<g opacity="0.8">
<rect x="0.5" y="0.5" width="180" height="180" rx="20" fill="#D9D9D9"/>
<path d="M110.667 50.8333H70.3332C68.3081 50.8333 66.6665 52.3256 66.6665 54.1666V90.8332C66.6665 92.6742 68.3081 94.1666 70.3332 94.1666H110.667C112.692 94.1666 114.333 92.6742 114.333 90.8332V54.1666C114.333 52.3256 112.692 50.8333 110.667 50.8333Z" stroke="black"/>
<path d="M81.3332 67.4999C83.3582 67.4999 84.9998 66.0075 84.9998 64.1666C84.9998 62.3256 83.3582 60.8333 81.3332 60.8333C79.3081 60.8333 77.6665 62.3256 77.6665 64.1666C77.6665 66.0075 79.3081 67.4999 81.3332 67.4999Z" stroke="black"/>
<path d="M75.833 85.8333L81.333 77.5L86.833 85.8333L95.9997 72.5L105.166 85.8333" stroke="black" stroke-linecap="round" stroke-linejoin="round"/>
<path d="M63.3259 123.508H59.5099L58.7779 125.5H57.8899L60.9499 117.22H61.8979L64.9459 125.5H64.0579L63.3259 123.508ZM63.0739 122.812L61.4179 118.276L59.7619 122.812H63.0739ZM65.91 122.212C65.91 121.54 66.046 120.952 66.318 120.448C66.59 119.936 66.962 119.544 67.434 119.272C67.914 118.992 68.454 118.852 69.054 118.852C69.63 118.852 70.15 118.992 70.614 119.272C71.078 119.552 71.418 119.916 71.634 120.364V116.62H72.474V125.5H71.634V124.036C71.434 124.492 71.106 124.868 70.65 125.164C70.194 125.452 69.658 125.596 69.042 125.596C68.442 125.596 67.902 125.456 67.422 125.176C66.95 124.896 66.578 124.5 66.306 123.988C66.042 123.476 65.91 122.884 65.91 122.212ZM71.634 122.224C71.634 121.696 71.526 121.232 71.31 120.832C71.094 120.432 70.798 120.124 70.422 119.908C70.054 119.692 69.646 119.584 69.198 119.584C68.734 119.584 68.318 119.688 67.95 119.896C67.582 120.104 67.29 120.408 67.074 120.808C66.866 121.2 66.762 121.668 66.762 122.212C66.762 122.748 66.866 123.22 67.074 123.628C67.29 124.028 67.582 124.336 67.95 124.552C68.318 124.76 68.734 124.864 69.198 124.864C69.646 124.864 70.054 124.756 70.422 124.54C70.798 124.324 71.094 124.016 71.31 123.616C71.526 123.216 71.634 122.752 71.634 122.224ZM74.0076 122.212C74.0076 121.54 74.1436 120.952 74.4156 120.448C74.6876 119.936 75.0596 119.544 75.5316 119.272C76.0116 118.992 76.5516 118.852 77.1516 118.852C77.7276 118.852 78.2476 118.992 78.7116 119.272C79.1756 119.552 79.5156 119.916 79.7316 120.364V116.62H80.5716V125.5H79.7316V124.036C79.5316 124.492 79.2036 124.868 78.7476 125.164C78.2916 125.452 77.7556 125.596 77.1396 125.596C76.5396 125.596 75.9996 125.456 75.5196 125.176C75.0476 124.896 74.6756 124.5 74.4036 123.988C74.1396 123.476 74.0076 122.884 74.0076 122.212ZM79.7316 122.224C79.7316 121.696 79.6236 121.232 79.4076 120.832C79.1916 120.432 78.8956 120.124 78.5196 119.908C78.1516 119.692 77.7436 119.584 77.2956 119.584C76.8316 119.584 76.4156 119.688 76.0476 119.896C75.6796 120.104 75.3876 120.408 75.1716 120.808C74.9636 121.2 74.8596 121.668 74.8596 122.212C74.8596 122.748 74.9636 123.22 75.1716 123.628C75.3876 124.028 75.6796 124.336 76.0476 124.552C76.4156 124.76 76.8316 124.864 77.2956 124.864C77.7436 124.864 78.1516 124.756 78.5196 124.54C78.8956 124.324 79.1916 124.016 79.4076 123.616C79.6236 123.216 79.7316 122.752 79.7316 122.224ZM86.2023 117.712C86.0343 117.712 85.8903 117.652 85.7703 117.532C85.6503 117.412 85.5903 117.264 85.5903 117.088C85.5903 116.912 85.6503 116.768 85.7703 116.656C85.8903 116.536 86.0343 116.476 86.2023 116.476C86.3703 116.476 86.5143 116.536 86.6343 116.656C86.7543 116.768 86.8143 116.912 86.8143 117.088C86.8143 117.264 86.7543 117.412 86.6343 117.532C86.5143 117.652 86.3703 117.712 86.2023 117.712ZM86.6223 118.948V125.5H85.7823V118.948H86.6223ZM96.3245 118.828C97.0925 118.828 97.7165 119.072 98.1965 119.56C98.6845 120.04 98.9285 120.74 98.9285 121.66V125.5H98.1005V121.756C98.1005 121.044 97.9285 120.5 97.5845 120.124C97.2405 119.748 96.7725 119.56 96.1805 119.56C95.5645 119.56 95.0725 119.764 94.7045 120.172C94.3365 120.58 94.1525 121.172 94.1525 121.948V125.5H93.3245V121.756C93.3245 121.044 93.1525 120.5 92.8085 120.124C92.4645 119.748 91.9925 119.56 91.3925 119.56C90.7765 119.56 90.2845 119.764 89.9165 120.172C89.5485 120.58 89.3645 121.172 89.3645 121.948V125.5H88.5245V118.948H89.3645V120.076C89.5725 119.668 89.8685 119.36 90.2525 119.152C90.6365 118.936 91.0645 118.828 91.5365 118.828C92.1045 118.828 92.6005 118.964 93.0245 119.236C93.4565 119.508 93.7685 119.908 93.9605 120.436C94.1365 119.916 94.4365 119.52 94.8605 119.248C95.2925 118.968 95.7805 118.828 96.3245 118.828ZM100.41 122.212C100.41 121.54 100.542 120.952 100.806 120.448C101.078 119.936 101.45 119.544 101.922 119.272C102.402 118.992 102.942 118.852 103.542 118.852C104.166 118.852 104.702 118.996 105.15 119.284C105.606 119.572 105.934 119.94 106.134 120.388V118.948H106.974V125.5H106.134V124.048C105.926 124.496 105.594 124.868 105.138 125.164C104.69 125.452 104.154 125.596 103.53 125.596C102.938 125.596 102.402 125.456 101.922 125.176C101.45 124.896 101.078 124.5 100.806 123.988C100.542 123.476 100.41 122.884 100.41 122.212ZM106.134 122.224C106.134 121.696 106.026 121.232 105.81 120.832C105.594 120.432 105.298 120.124 104.922 119.908C104.554 119.692 104.146 119.584 103.698 119.584C103.234 119.584 102.818 119.688 102.45 119.896C102.082 120.104 101.79 120.408 101.574 120.808C101.366 121.2 101.262 121.668 101.262 122.212C101.262 122.748 101.366 123.22 101.574 123.628C101.79 124.028 102.082 124.336 102.45 124.552C102.818 124.76 103.234 124.864 103.698 124.864C104.146 124.864 104.554 124.756 104.922 124.54C105.298 124.324 105.594 124.016 105.81 123.616C106.026 123.216 106.134 122.752 106.134 122.224ZM111.64 118.852C112.256 118.852 112.792 118.996 113.248 119.284C113.704 119.572 114.032 119.936 114.232 120.376V118.948H115.072V125.668C115.072 126.268 114.94 126.8 114.676 127.264C114.42 127.728 114.06 128.084 113.596 128.332C113.132 128.588 112.604 128.716 112.012 128.716C111.172 128.716 110.472 128.516 109.912 128.116C109.36 127.716 109.016 127.172 108.88 126.484H109.708C109.852 126.94 110.124 127.304 110.524 127.576C110.932 127.848 111.428 127.984 112.012 127.984C112.436 127.984 112.816 127.892 113.152 127.708C113.488 127.532 113.752 127.268 113.944 126.916C114.136 126.564 114.232 126.148 114.232 125.668V124.048C114.024 124.496 113.692 124.868 113.236 125.164C112.788 125.452 112.256 125.596 111.64 125.596C111.04 125.596 110.5 125.456 110.02 125.176C109.548 124.896 109.176 124.5 108.904 123.988C108.64 123.476 108.508 122.884 108.508 122.212C108.508 121.54 108.64 120.952 108.904 120.448C109.176 119.936 109.548 119.544 110.02 119.272C110.5 118.992 111.04 118.852 111.64 118.852ZM114.232 122.224C114.232 121.696 114.124 121.232 113.908 120.832C113.692 120.432 113.396 120.124 113.02 119.908C112.652 119.692 112.244 119.584 111.796 119.584C111.332 119.584 110.916 119.688 110.548 119.896C110.18 120.104 109.888 120.408 109.672 120.808C109.464 121.2 109.36 121.668 109.36 122.212C109.36 122.748 109.464 123.22 109.672 123.628C109.888 124.028 110.18 124.336 110.548 124.552C110.916 124.76 111.332 124.864 111.796 124.864C112.244 124.864 112.652 124.756 113.02 124.54C113.396 124.324 113.692 124.016 113.908 123.616C114.124 123.216 114.232 122.752 114.232 122.224ZM122.917 121.888C122.917 122.176 122.909 122.396 122.893 122.548H117.457C117.481 123.044 117.601 123.468 117.817 123.82C118.033 124.172 118.317 124.44 118.669 124.624C119.021 124.8 119.405 124.888 119.821 124.888C120.365 124.888 120.821 124.756 121.189 124.492C121.565 124.228 121.813 123.872 121.933 123.424H122.821C122.661 124.064 122.317 124.588 121.789 124.996C121.269 125.396 120.613 125.596 119.821 125.596C119.205 125.596 118.653 125.46 118.165 125.188C117.677 124.908 117.293 124.516 117.013 124.012C116.741 123.5 116.605 122.904 116.605 122.224C116.605 121.544 116.741 120.948 117.013 120.436C117.285 119.924 117.665 119.532 118.153 119.26C118.641 118.988 119.197 118.852 119.821 118.852C120.445 118.852 120.989 118.988 121.453 119.26C121.925 119.532 122.285 119.9 122.533 120.364C122.789 120.82 122.917 121.328 122.917 121.888ZM122.065 121.864C122.073 121.376 121.973 120.96 121.765 120.616C121.565 120.272 121.289 120.012 120.937 119.836C120.585 119.66 120.201 119.572 119.785 119.572C119.161 119.572 118.629 119.772 118.189 120.172C117.749 120.572 117.505 121.136 117.457 121.864H122.065ZM70.5901 136.828C71.3581 136.828 71.9821 137.072 72.4621 137.56C72.9501 138.04 73.1941 138.74 73.1941 139.66V143.5H72.3661V139.756C72.3661 139.044 72.1941 138.5 71.8501 138.124C71.5061 137.748 71.0381 137.56 70.4461 137.56C69.8301 137.56 69.3381 137.764 68.9701 138.172C68.6021 138.58 68.4181 139.172 68.4181 139.948V143.5H67.5901V139.756C67.5901 139.044 67.4181 138.5 67.0741 138.124C66.7301 137.748 66.2581 137.56 65.6581 137.56C65.0421 137.56 64.5501 137.764 64.1821 138.172C63.8141 138.58 63.6301 139.172 63.6301 139.948V143.5H62.7901V136.948H63.6301V138.076C63.8381 137.668 64.1341 137.36 64.5181 137.152C64.9021 136.936 65.3301 136.828 65.8021 136.828C66.3701 136.828 66.8661 136.964 67.2901 137.236C67.7221 137.508 68.0341 137.908 68.2261 138.436C68.4021 137.916 68.7021 137.52 69.1261 137.248C69.5581 136.968 70.0461 136.828 70.5901 136.828ZM74.6756 140.212C74.6756 139.54 74.8076 138.952 75.0716 138.448C75.3436 137.936 75.7156 137.544 76.1876 137.272C76.6676 136.992 77.2076 136.852 77.8076 136.852C78.4316 136.852 78.9676 136.996 79.4156 137.284C79.8716 137.572 80.1996 137.94 80.3996 138.388V136.948H81.2396V143.5H80.3996V142.048C80.1916 142.496 79.8596 142.868 79.4036 143.164C78.9556 143.452 78.4196 143.596 77.7956 143.596C77.2036 143.596 76.6676 143.456 76.1876 143.176C75.7156 142.896 75.3436 142.5 75.0716 141.988C74.8076 141.476 74.6756 140.884 74.6756 140.212ZM80.3996 140.224C80.3996 139.696 80.2916 139.232 80.0756 138.832C79.8596 138.432 79.5636 138.124 79.1876 137.908C78.8196 137.692 78.4116 137.584 77.9636 137.584C77.4996 137.584 77.0836 137.688 76.7156 137.896C76.3476 138.104 76.0556 138.408 75.8396 138.808C75.6316 139.2 75.5276 139.668 75.5276 140.212C75.5276 140.748 75.6316 141.22 75.8396 141.628C76.0556 142.028 76.3476 142.336 76.7156 142.552C77.0836 142.76 77.4996 142.864 77.9636 142.864C78.4116 142.864 78.8196 142.756 79.1876 142.54C79.5636 142.324 79.8596 142.016 80.0756 141.616C80.2916 141.216 80.3996 140.752 80.3996 140.224ZM86.5893 143.5L84.8973 140.86L83.2653 143.5H82.3773L84.4893 140.224L82.4013 136.948H83.3493L85.0173 139.552L86.6373 136.948H87.5133L85.4253 140.188L87.5373 143.5H86.5893ZM91.3818 135.652V134.896H93.4218V143.5H92.5698V135.652H91.3818ZM95.2937 139.12C95.2937 137.744 95.5057 136.676 95.9297 135.916C96.3537 135.156 97.1137 134.776 98.2097 134.776C99.3057 134.776 100.066 135.156 100.49 135.916C100.914 136.676 101.126 137.744 101.126 139.12C101.126 140.52 100.914 141.604 100.49 142.372C100.066 143.14 99.3057 143.524 98.2097 143.524C97.1057 143.524 96.3417 143.14 95.9177 142.372C95.5017 141.604 95.2937 140.52 95.2937 139.12ZM100.298 139.12C100.298 138.376 100.246 137.748 100.142 137.236C100.038 136.724 99.8337 136.312 99.5297 136C99.2257 135.688 98.7857 135.532 98.2097 135.532C97.6337 135.532 97.1937 135.688 96.8897 136C96.5857 136.312 96.3817 136.724 96.2777 137.236C96.1737 137.748 96.1217 138.376 96.1217 139.12C96.1217 139.888 96.1737 140.532 96.2777 141.052C96.3817 141.564 96.5857 141.976 96.8897 142.288C97.1937 142.6 97.6337 142.756 98.2097 142.756C98.7857 142.756 99.2257 142.6 99.5297 142.288C99.8337 141.976 100.038 141.564 100.142 141.052C100.246 140.532 100.298 139.888 100.298 139.12ZM111.064 135.22V143.5H110.224V136.888L107.272 143.5H106.66L103.708 136.912V143.5H102.868V135.22H103.756L106.96 142.396L110.164 135.22H111.064ZM116.894 139.168C117.366 139.256 117.766 139.496 118.094 139.888C118.422 140.28 118.586 140.736 118.586 141.256C118.586 141.68 118.478 142.064 118.262 142.408C118.054 142.744 117.746 143.012 117.338 143.212C116.93 143.404 116.442 143.5 115.874 143.5H112.97V135.112H115.79C116.638 135.112 117.282 135.308 117.722 135.7C118.17 136.092 118.394 136.6 118.394 137.224C118.394 137.744 118.254 138.168 117.974 138.496C117.694 138.816 117.334 139.04 116.894 139.168ZM113.81 138.82H115.766C116.334 138.82 116.77 138.688 117.074 138.424C117.386 138.152 117.542 137.78 117.542 137.308C117.542 136.844 117.386 136.48 117.074 136.216C116.77 135.952 116.322 135.82 115.73 135.82H113.81V138.82ZM115.814 142.792C116.422 142.792 116.894 142.648 117.23 142.36C117.574 142.072 117.746 141.676 117.746 141.172C117.746 140.668 117.566 140.268 117.206 139.972C116.854 139.668 116.378 139.516 115.778 139.516H113.81V142.792H115.814Z" fill="black"/>
</g>
</svg>
