<svg width="150" height="150" viewBox="0 0 150 150" fill="none" xmlns="http://www.w3.org/2000/svg">
<rect width="150" height="150" rx="75" fill="white" fill-opacity="0.95"/>
<path d="M42.9085 109.617L39.9626 106.667L82.1876 64.4374C80.7765 61.0957 80.4696 57.811 81.2668 54.5832C82.064 51.3582 83.8557 48.3665 86.6418 45.6082C89.3612 42.8888 92.764 41.0026 96.8501 39.9499C100.936 38.8971 104.35 39.7415 107.092 42.4832C109.833 45.2249 110.678 48.6388 109.625 52.7249C108.572 56.811 106.686 60.2137 103.967 62.9332C101.211 65.7221 98.2196 67.5138 94.9918 68.3082C91.764 69.1026 88.4793 68.7957 85.1376 67.3874L77.5251 74.9999L109.192 106.667L106.242 109.617L74.5751 78.1582L42.9085 109.617ZM55.6835 74.4707L44.1418 62.929C41.0335 59.8262 39.3585 56.1512 39.1168 51.904C38.8751 47.6568 40.1237 43.8179 42.8626 40.3874L66.2918 63.8624L55.6835 74.4707Z" fill="#E2725B"/>
</svg>
