<svg width="24" height="25" viewBox="0 0 24 25" fill="none" xmlns="http://www.w3.org/2000/svg">
<path id="search" d="M21.7444 24.25L16.8388 19.6C16.0333 20.2444 15.1069 20.7546 14.0597 21.1306C13.0124 21.5065 11.8981 21.6944 10.7166 21.6944C7.78976 21.6944 5.31267 20.6808 3.28536 18.6535C1.25804 16.6262 0.244385 14.1491 0.244385 11.2222C0.244385 8.29537 1.25804 5.81829 3.28536 3.79097C5.31267 1.76366 7.78976 0.75 10.7166 0.75C13.6435 0.75 16.1205 1.76366 18.1479 3.79097C20.1752 5.81829 21.1888 8.29537 21.1888 11.2222C21.1888 12.4037 21.0009 13.5181 20.6249 14.5653C20.249 15.6125 19.7388 16.5389 19.0944 17.3444L23.9999 21.9944L21.7444 24.25ZM10.7166 18.4722C12.7305 18.4722 14.4423 17.7674 15.852 16.3576C17.2617 14.9479 17.9666 13.2361 17.9666 11.2222C17.9666 9.20833 17.2617 7.49653 15.852 6.08681C14.4423 4.67708 12.7305 3.97222 10.7166 3.97222C8.70272 3.97222 6.99091 4.67708 5.58119 6.08681C4.17147 7.49653 3.46661 9.20833 3.46661 11.2222C3.46661 13.2361 4.17147 14.9479 5.58119 16.3576C6.99091 17.7674 8.70272 18.4722 10.7166 18.4722Z" fill="#CACACA"/>
</svg>
